<?xml version="1.0" encoding="UTF-8" standalone="no"?><!DOCTYPE svg PUBLIC "-//W3C//DTD SVG 1.1//EN" "http://www.w3.org/Graphics/SVG/1.1/DTD/svg11.dtd"><svg width="100%" height="100%" viewBox="0 0 11113 8334" version="1.1" xmlns="http://www.w3.org/2000/svg" xmlns:xlink="http://www.w3.org/1999/xlink" xml:space="preserve" xmlns:serif="http://www.serif.com/" style="fill-rule:evenodd;clip-rule:evenodd;stroke-linejoin:round;stroke-miterlimit:2;"><g><path d="M1222.57,7916.71c-292,-143 -990.063,-344.666 -868.471,-1209.71c38.979,-277.292 395.225,-699.5 655.071,-803.958c1002.63,-403.167 763.491,-742 329.416,-1473.54c-337.575,-779.704 -175.187,-2154.67 593.625,-2566.71c496.534,-266.108 1385.86,123.363 1907.64,-88.945c562.984,-229.067 619.234,-875.308 1162.11,-1148.62c1628.67,-819.941 4006.92,-70.737 4080.96,1775.97c135.001,3366.85 2774.54,2081.76 937.001,5561.39l-8797.35,-45.875Z" style="fill:#ffefc9;fill-rule:nonzero;"/><path d="M1554.28,6477.75c-12.9,11.542 -22.22,31.958 -26.391,58.583c-6.279,40.125 -0.659,89.125 15.829,137.959c26.367,78.125 120.004,138.416 158.05,160.208c12.4,-39.792 37.966,-139.583 11.675,-217.5l15.225,-5.125l-15.225,5.125c-32.321,-95.75 -98.488,-163.542 -144.488,-148.042c-5.279,1.792 -10.191,4.75 -14.675,8.792Zm165.317,402.208l-15.813,-7.791c-6.233,-3.084 -153.049,-76.584 -190.52,-187.584c-18.113,-53.666 -24.196,-108.083 -17.13,-153.208c7.646,-48.833 29.855,-81.833 62.542,-92.833c64.663,-21.834 146.021,52.041 185.217,168.208c37.191,110.167 -15.721,250.792 -17.992,256.75l-6.304,16.458Z" style="fill:#f7f9ff;fill-rule:nonzero;"/><path d="M1403.43,6924.17c-6.37,5.708 -10.85,12.208 -13.179,19.375c-15.004,46.166 53.529,111.583 149.654,142.833c78.421,25.458 182.667,-13.667 222.875,-31.167c-24.525,-33.708 -89.308,-113.791 -167.516,-139.208c-49.034,-15.917 -98.088,-21 -138.129,-14.292c-23.334,3.959 -41.809,11.792 -53.705,22.459Zm406.471,143.875l-15.7,8c-6.187,3.166 -152.787,77.083 -264.233,40.875c-116.579,-37.875 -191.375,-118.417 -170.283,-183.292c10.662,-32.833 43.379,-55.417 92.12,-63.583c45.055,-7.584 99.53,-2.125 153.392,15.375c110.608,35.958 191.85,162.375 195.25,167.708l9.454,14.917Z" style="fill:#f7f9ff;fill-rule:nonzero;"/><path d="M1798.97,7039.88c38.554,-15.833 131.696,-59.792 174.916,-129.75c27.096,-43.875 43.642,-90.333 46.592,-130.833c2.633,-36.209 -6.4,-63.5 -24.792,-74.875c-18.387,-11.375 -46.837,-7.209 -78.058,11.333c-34.896,20.792 -69.037,56.375 -96.133,100.208c-43.342,70.167 -30.009,180.709 -22.525,223.917Zm152.829,-55.083c-67.308,60.333 -155.058,90.583 -159.759,92.166l-16.704,5.667l-4.083,-17.167c-1.608,-6.75 -38.692,-166.666 22.896,-266.375c29.767,-48.166 67.783,-87.583 107.046,-110.958c42.479,-25.25 82.037,-29.208 111.387,-11.042c29.35,18.125 43.538,55.25 39.95,104.542c-3.316,45.583 -21.537,97.208 -51.304,145.375c-13.362,21.625 -30.596,40.875 -49.429,57.792Z" style="fill:#f7f9ff;fill-rule:nonzero;"/><path d="M2009.73,7377.62l-37.921,23.875l-0.858,-0.875c-1.2,0.542 -2.488,1.167 -3.867,1.833l-12.904,6.042l-7.546,-12.083c-18.591,-29.792 -36.058,-58.375 -51.912,-84.959c-198.33,-331.875 -233.567,-486.125 -234.971,-492.541l-3.446,-15.709l62.267,-13.541l3.241,15.791c0.842,3.625 37.421,156.917 233.125,483.042c15.034,25 30.63,50.458 46.354,75.625l8.438,13.5Z" style="fill:#f7f9ff;fill-rule:nonzero;"/><path d="M3627.08,7085.42c0,-302.334 -245.104,-547.459 -547.454,-547.459c-240.25,0 -444.333,154.792 -518.046,370.042c-31.42,-19.125 -68.325,-30.167 -107.804,-30.167c-114.641,0 -207.583,92.959 -207.583,207.584c-0,17.625 2.217,34.75 6.354,51.083c-21.383,-3.208 -43.258,-4.875 -65.529,-4.875c-242.684,-0 -439.417,196.75 -439.417,439.417c0,242.708 190.513,417.041 433.2,417.041c102.013,0 1030.66,-40.666 1030.66,-40.666c0,-0 415.621,-627 415.621,-862Z" style="fill:#2a9d8f;fill-rule:nonzero;"/><path d="M10217.5,7860.21c0,19.875 -1.791,39.209 -5.333,58.084l-2860.04,-0l180.542,-923.042c-133.833,-84.958 -220.416,-220.583 -220.416,-373.375c-0,-257.167 245.416,-465.667 548.166,-465.667c302.708,0 548.167,208.5 548.167,465.667c-0,35.125 -4.584,69.333 -13.292,102.208c21.75,-2.125 43.875,-3.291 66.292,-3.291c251.167,-0 464.541,137.5 541.625,328.666c32.791,-17 71.416,-26.791 112.667,-26.791c119.875,-0 217.041,82.541 217.041,184.375c-0,15.666 -2.333,30.875 -6.667,45.375c22.375,-2.834 45.208,-4.334 68.5,-4.334c218.042,0 400.625,129.042 447.667,302.125c19.208,-3.625 39.084,-5.625 59.416,-5.625c174.334,0 315.667,141.292 315.667,315.625Z" style="fill:#2a9d8f;fill-rule:nonzero;"/><path d="M8217.75,5092.96c-94.333,101.625 -278.375,126 -278.375,126c-0,0 -7.875,-202.5 86.458,-304.125c94.292,-101.625 213.75,-144.125 266.709,-94.916c53,49.208 19.541,171.458 -74.792,273.041Z" style="fill:#2a9d8f;fill-rule:nonzero;"/><path d="M7827.17,5123.79c25.208,136.333 -65.125,298.541 -65.125,298.541c-0,0 -167.167,-114.583 -192.375,-250.916c-25.208,-136.334 12,-257.5 83.083,-270.667c71.125,-13.125 149.208,86.708 174.417,223.042Z" style="fill:#2a9d8f;fill-rule:nonzero;"/><path d="M7544.38,5773.33c-9.25,22.292 -16.792,37.125 -18.75,40.917c-0.208,0.458 -0.375,0.833 -0.5,0.917l0,0.083c0,-0 -0.083,-0.042 -0.125,-0.125l-0.542,-0.333c-1.874,-1.25 -7.25,-4.959 -15.25,-10.834c-42.75,-31.541 -158.541,-125.666 -181.166,-235.958c-27.751,-135.833 7.166,-257.708 77.958,-272.167c70.833,-14.5 150.833,83.875 178.625,219.625c12.417,60.792 1.792,127.292 -13.75,182.084c-8.333,29.583 -18.125,55.708 -26.5,75.791Z" style="fill:#2a9d8f;fill-rule:nonzero;"/><path d="M8036.67,5556.29c-138.417,-7.792 -274.625,-133.959 -274.625,-133.959c-0,0 150.916,-135.291 289.333,-127.5c138.417,7.792 247.333,72.667 243.25,144.875c-4.042,72.167 -119.542,124.375 -257.958,116.584Z" style="fill:#2a9d8f;fill-rule:nonzero;"/><path d="M7799.42,5909.5c-138.459,6.667 -287.042,-104.625 -287.042,-104.625c-0,-0 135.958,-150.25 274.458,-156.917c138.458,-6.666 253.542,46.459 257.042,118.709c3.458,72.208 -105.958,136.166 -244.458,142.833Z" style="fill:#2a9d8f;fill-rule:nonzero;"/><path d="M7989.83,5184.79c-1.584,1.333 -148.626,131.041 -392.626,544.5c-17.875,30.291 -36.25,62.125 -55.166,95.5l-2.042,-1.125l-14.875,-8.417l0,-0.083l-0.125,-0.042l-0.542,-0.333c-1.874,-1.25 -7.25,-4.959 -15.25,-10.834c21.251,-37.458 41.75,-72.875 61.667,-106.416c243.208,-410.375 387.125,-536.584 393.583,-542.209l25.376,29.459Z" style="fill:#2a9d8f;fill-rule:nonzero;"/><path d="M2035.89,3862.89c101.537,89.904 129.595,269.341 129.595,269.341c0,0 -197.858,12.35 -299.4,-77.55c-101.541,-89.904 -145.85,-205.721 -98.958,-258.679c46.892,-52.963 167.221,-23.017 268.763,66.888Z" style="fill:#2a9d8f;fill-rule:nonzero;"/><path d="M2075,4244.17c132.746,-27.792 293.45,56.791 293.45,56.791c0,0 -108.2,166.125 -240.942,193.917c-132.745,27.833 -252.108,-5.792 -266.608,-75c-14.496,-69.25 81.359,-147.917 214.1,-175.708Z" style="fill:#2a9d8f;fill-rule:nonzero;"/><path d="M2716.77,4505.79c21.979,8.5 36.675,15.541 40.429,17.375c0.467,0.208 0.812,0.375 0.917,0.458l0.058,0.042c-0,-0 -0.017,0.041 -0.092,0.083l-0.3,0.583c-1.2,1.834 -4.695,7.167 -10.262,15.125c-29.884,42.542 -119.279,157.959 -226.592,182.625c-132.196,30.25 -252.204,-1.083 -267.962,-70c-15.817,-68.958 78.55,-149.416 210.687,-179.708c59.163,-13.542 124.413,-4.708 178.383,9.25c29.096,7.458 54.901,16.417 74.734,24.167Z" style="fill:#2a9d8f;fill-rule:nonzero;"/><path d="M2493.17,4029.34c-4.442,135.554 -124.713,271.62 -124.713,271.62c0,0 -135.75,-144.458 -131.308,-280.008c4.437,-135.546 65.354,-243.558 136.05,-241.242c70.7,2.321 124.412,114.084 119.971,249.63Z" style="fill:#2a9d8f;fill-rule:nonzero;"/><path d="M2844.07,4253.21c9.712,135.25 -95.713,283.167 -95.713,283.167c0,-0 -150.075,-129.542 -159.791,-264.829c-9.713,-135.267 39.608,-249.042 110.162,-254.108c70.554,-5.063 135.625,100.487 145.342,235.77Z" style="fill:#2a9d8f;fill-rule:nonzero;"/><path d="M2130.93,4083.66c1.338,1.517 131.571,142.338 541.542,371.463c30.05,16.75 61.6,34.042 94.666,51.75l-1.049,2l-7.913,14.792l-0.058,-0.042l-0.034,0.125l-0.3,0.583c-1.2,1.834 -4.695,7.167 -10.262,15.125c-37.113,-19.916 -72.242,-39.166 -105.484,-57.833c-406.941,-228.458 -533.704,-366.262 -539.333,-372.475l28.225,-25.488Z" style="fill:#2a9d8f;fill-rule:nonzero;"/><path d="M2168.05,5536.92c100.429,-55.292 251.275,-26.667 251.275,-26.667c-0,0 -46.371,161.042 -146.8,216.375c-100.433,55.292 -205.238,57.667 -234.083,5.292c-28.855,-52.375 29.174,-139.667 129.608,-195Z" style="fill:#2a9d8f;fill-rule:nonzero;"/><path d="M2482.75,5614.08c8.273,-60.334 44.042,-117.941 75.761,-158.693c27.994,-35.967 52.835,-58.807 52.835,-58.807c-0,0 101.529,133.334 85.958,246.917c-15.575,113.583 -76.229,199.083 -135.479,190.958c-59.246,-8.125 -94.646,-106.791 -79.075,-220.375Z" style="fill:#2a9d8f;fill-rule:nonzero;"/><path d="M2873.37,5177.42c13.02,-15.084 22.795,-24.792 25.32,-27.25c0.292,-0.334 0.525,-0.584 0.63,-0.625l0.033,-0.042c-0,0 0.042,0.042 0.054,0.125l0.371,0.375c1.113,1.5 4.396,5.792 9.133,12.458c25.4,35.917 91.892,139.875 81.042,232.334c-13.45,113.833 -72.5,200.5 -131.858,193.458c-59.388,-7 -96.655,-105 -83.238,-218.792c6.017,-50.958 31.588,-100.416 58.042,-139.416c14.187,-21.042 28.667,-39.042 40.471,-52.625Z" style="fill:#3f964f;fill-rule:nonzero;"/><path d="M2430.47,5220.08c106.671,42.042 180.867,176.5 180.867,176.5c-0,0 -153.605,67.042 -260.275,25c-106.667,-42.041 -175.367,-121.25 -153.438,-176.875c21.929,-55.625 126.175,-66.666 232.846,-24.625Z" style="fill:#2a9d8f;fill-rule:nonzero;"/><path d="M2708.41,5004.29c110.471,30.666 198.275,156.625 198.275,156.625c0,-0 -145.775,82.708 -256.246,52.041c-110.47,-30.708 -187.049,-102.291 -171.041,-159.916c16.008,-57.625 118.537,-79.459 229.012,-48.75Z" style="fill:#2a9d8f;fill-rule:nonzero;"/><path d="M2370.83,5523.96c1.584,-0.625 150.709,-64.333 449.617,-325.666c21.879,-19.167 44.592,-39.375 68.092,-60.667l1.295,1.375l9.513,10.5l-0.033,0.042l0.087,0.083l0.371,0.375c1.113,1.5 4.396,5.792 9.133,12.458c-26.383,23.917 -51.687,46.417 -76.012,67.584c-297.496,259.125 -443.242,320.916 -449.792,323.625l-12.271,-29.709Z" style="fill:#2a9d8f;fill-rule:nonzero;"/><path d="M10219.6,6123.46c-42,0 -100.5,42.542 -142.166,103.459c-43.459,63.5 -35.876,167.125 -30.751,207.75c36.625,-13.084 125.334,-50.042 168.708,-113.334c53.251,-77.833 66.667,-165.25 29.292,-190.833c-6.874,-4.667 -15.291,-7.042 -25.083,-7.042Zm-196.833,350l-3.042,-16.166c-1.209,-6.375 -28.791,-157.084 32.958,-247.334c48.417,-70.75 113.959,-116.5 166.917,-116.5c15.958,0 30.083,4.125 42,12.292c52.583,36 43.125,138.125 -21.459,232.5c-61.333,89.583 -195.875,129.042 -201.541,130.667l-15.833,4.541Z" style="fill:#f7f9ff;fill-rule:nonzero;"/><path d="M9803.21,6261.5c-4.416,0 -8.667,0.708 -12.625,2.083c-42.875,14.709 -53.166,102.5 -22.499,191.709c25,72.791 112.666,128.541 148.291,148.708c11.375,-37.208 34.708,-130.458 9.792,-203c-27.334,-79.542 -80.167,-139.5 -122.959,-139.5Zm130.042,384.833l-14.792,-7.208c-5.833,-2.833 -143.249,-70.667 -178.75,-174.083c-37.166,-108.167 -19.125,-209.125 41.125,-229.834c7.126,-2.458 14.667,-3.708 22.375,-3.708c56.792,-0 119.001,65.708 151.292,159.75c35.292,102.625 -13.375,234.125 -15.458,239.667l-5.792,15.416Z" style="fill:#f7f9ff;fill-rule:nonzero;"/><path d="M9664.42,6582.79c-4.708,-0 -9.25,0.791 -13.417,2.291c-18.959,6.917 -32.375,30.167 -36.792,63.75c-4.958,37.584 1.375,83.167 17.875,128.375c26.792,73.334 118.875,128.459 151.125,145.875c1.25,-4.416 2.667,-9.625 4.125,-15.5c4.917,-19.375 8.584,-38.75 11.001,-57.625c6.624,-51.375 3.541,-95.125 -9.209,-130.083c-28.5,-78.167 -82.125,-137.083 -124.708,-137.083Zm140.125,379l-20.917,-3.459l-1.417,-1.958c-2.417,-1.208 -5.833,-2.917 -10.124,-5.208c-40.417,-21.417 -137.709,-80.292 -168.168,-163.667c-18.124,-49.667 -25.041,-100.292 -19.458,-142.583c6.042,-45.75 26,-77 56.25,-88c7.501,-2.75 15.459,-4.125 23.709,-4.125c56.333,-0 119.208,64.5 152.874,156.791c14.418,39.542 18.042,88.042 10.792,144.209c-2.542,20 -6.458,40.583 -11.667,61.125c-4.333,17.333 -8.333,29.541 -9.625,33.333l-2.249,13.542Z" style="fill:#f7f9ff;fill-rule:nonzero;"/><path d="M9948.08,6622.38c31.042,18.458 106.542,58.375 178.376,58.375c5.624,0 11.208,-0.292 16.541,-0.75c93.917,-8.667 169.75,-54.083 165.625,-99.208c-3.625,-39.167 -67.791,-68.75 -149.25,-68.75c-10.417,-0 -21.084,0.5 -31.709,1.5c-76.749,7.041 -151.624,79 -179.583,108.833Zm178.376,88.333c-102.292,0 -205.584,-69.708 -209.917,-72.666l-13.584,-9.292l10.5,-12.667c4.125,-5 102.584,-122.416 211.459,-132.416c11.541,-1.042 23.125,-1.584 34.458,-1.584c100.25,0 173.917,39.459 179.125,95.959c5.833,63.458 -78.833,121.333 -192.75,131.833c-6.25,0.542 -12.75,0.833 -19.291,0.833Z" style="fill:#f7f9ff;fill-rule:nonzero;"/><path d="M9804.17,6932.62c29.417,13.542 96.208,40.542 161.208,40.542c13.667,-0 26.667,-1.209 38.667,-3.584c92.499,-18.375 163.208,-71.458 154.375,-115.875c-6.417,-32.125 -56.834,-54.583 -122.625,-54.583c-20.917,0 -42.583,2.167 -64.334,6.542c-75.625,15 -142.583,94.375 -167.291,126.958Zm161.208,70.542c-94.041,-0 -187.041,-49.584 -190.916,-51.667l-14.501,-7.833l9.126,-13.709c3.582,-5.375 89.249,-132.416 196.499,-153.75c23.708,-4.708 47.334,-7.083 70.209,-7.083c82.833,-0 142.5,30.917 152.042,78.708c12.416,62.459 -65.75,128.875 -177.959,151.167c-13.917,2.792 -28.875,4.167 -44.5,4.167Z" style="fill:#f7f9ff;fill-rule:nonzero;"/><path d="M9814.5,6969.08l-39.083,-14.916l0.166,-1.125c-1.083,-0.584 -2.249,-1.209 -3.499,-1.875l-11.751,-6.209l4.792,-12.416c11.75,-30.542 23.25,-59.584 34.209,-86.375c136.083,-333.917 231.416,-446.959 235.375,-451.584l9.791,-11.416l45,38.833l-9.958,11.375c-0.834,1 -95.084,113.75 -229.292,444.833c-10.25,25.292 -20.459,51.209 -30.375,76.959l-5.375,13.916Z" style="fill:#f7f9ff;fill-rule:nonzero;"/><path d="M6689.92,944.887c-81.499,0 -147.833,66.313 -147.833,147.821c0,81.505 66.334,147.821 147.833,147.821c81.501,0 147.793,-66.316 147.793,-147.821c-0,-81.508 -66.292,-147.821 -147.793,-147.821Zm0,334.2c-102.791,0 -186.374,-83.608 -186.374,-186.379c-0,-102.775 83.583,-186.379 186.374,-186.379c102.751,0 186.376,83.604 186.376,186.379c-0,102.771 -83.625,186.379 -186.376,186.379Z" style="fill:#f7f9ff;fill-rule:nonzero;"/><path d="M10373.2,8008.42l-9150.64,-0c-25.317,-0 -45.838,-20.542 -45.838,-45.834c0,-25.333 20.521,-45.875 45.838,-45.875l9150.64,0c25.332,0 45.875,20.542 45.875,45.875c-0,25.292 -20.543,45.834 -45.875,45.834Z" style="fill:#264653;fill-rule:nonzero;"/><path d="M1829.85,5771c-81.508,-0 -147.821,66.292 -147.821,147.792c0,81.5 66.313,147.833 147.821,147.833c81.504,-0 147.817,-66.333 147.817,-147.833c-0,-81.5 -66.313,-147.792 -147.817,-147.792Zm-0,334.167c-102.771,-0 -186.384,-83.584 -186.384,-186.375c0,-102.75 83.613,-186.375 186.384,-186.375c102.771,-0 186.379,83.625 186.379,186.375c0,102.791 -83.608,186.375 -186.379,186.375Z" style="fill:#f7f9ff;fill-rule:nonzero;"/><path d="M2361.09,6341.29c-0,61.833 -50.113,111.916 -111.925,111.916c-61.817,0 -111.925,-50.083 -111.925,-111.916c-0,-61.792 50.108,-111.917 111.925,-111.917c61.812,-0 111.925,50.125 111.925,111.917Z" style="fill:#f7f9ff;fill-rule:nonzero;"/><path d="M6403,731.146c-0,61.817 -50.084,111.925 -111.917,111.925c-61.833,-0 -111.916,-50.108 -111.916,-111.925c-0,-61.813 50.083,-111.921 111.916,-111.921c61.833,0 111.917,50.108 111.917,111.921Z" style="fill:#f7f9ff;fill-rule:nonzero;"/><path d="M10043.5,5451.83c0,61.834 -50.083,111.917 -111.916,111.917c-61.792,-0 -111.917,-50.083 -111.917,-111.917c-0,-61.791 50.125,-111.916 111.917,-111.916c61.833,-0 111.916,50.125 111.916,111.916Z" style="fill:#f7f9ff;fill-rule:nonzero;"/><path d="M7409.12,7918.29l-4548.93,-0c-71.625,-0 -129.692,-58.084 -129.692,-129.709l0,-6141.75c0,-71.628 58.067,-129.691 129.692,-129.691l4548.93,-0c71.625,-0 129.667,58.063 129.667,129.691l-0,6141.75c-0,71.625 -58.042,129.709 -129.667,129.709Z" style="fill:#e9c46a;fill-rule:nonzero;"/><path d="M3972.76,3062.71l-1239.48,481.341l-455.667,-1173.37l1239.48,-481.341l455.667,1173.37Z" style="fill:#f4a261;fill-rule:nonzero;"/><path d="M3074.6,2060.14l0,1348.35l77.142,-23.483l-0,-1355.05l-77.142,30.187Z" style="fill:#ffbb86;fill-rule:nonzero;"/><path d="M7282.33,7641.12l-3296.53,-0l-768.596,-551.625l0,-5400.06l4065.12,0l0,5951.69Z" style="fill:#ffe8b1;fill-rule:nonzero;"/><path d="M7220.75,7592.62l-3296.55,-0l-768.6,-547.083l0,-5355.48l4065.15,-0l-0,5902.56Z" style="fill:#fff;fill-rule:nonzero;"/><path d="M3924.2,7594.96l-768.308,-549.416l510,-103.417l258.308,652.833Z" style="fill:#ffe8b1;fill-rule:nonzero;"/><path d="M3155.9,7045.54l829.908,595.583c0,-0 -626.941,-185.25 -829.908,-595.583Z" style="fill:#b29e6c;fill-rule:nonzero;"/><path d="M6383.96,1542.62l0,296.3c0,30.633 -24.833,55.483 -55.5,55.483l-2262.68,0c-30.679,0 -55.533,-24.85 -55.533,-55.483l-0,-296.3c-0,-126.913 102.92,-229.834 229.883,-229.834l1914,0c59.166,0 113.167,22.367 153.917,59.134c46.625,42.071 75.916,102.959 75.916,170.7Z" style="fill:#f37a50;fill-rule:nonzero;"/><path d="M5685.17,1392.28l-976.124,-0c-0,-27.083 2.208,-53.6 6.458,-79.484c37.958,-231.766 239.167,-408.554 481.625,-408.554c242.458,0 443.667,176.788 481.583,408.554c4.292,25.884 6.458,52.401 6.458,79.484Z" style="fill:#f37a50;fill-rule:nonzero;"/><path d="M6308.04,1371.92l-2297.8,411.379l-0,-240.679c-0,-126.913 102.92,-229.834 229.883,-229.834l475.375,0c37.958,-231.766 239.167,-408.554 481.625,-408.554c242.458,0 443.667,176.788 481.583,408.554l475.417,0c59.166,0 113.167,22.367 153.917,59.134Z" style="fill:#de623c;fill-rule:nonzero;"/><path d="M5343.08,1167.18c0,80.613 -65.375,145.958 -145.958,145.958c-80.625,0 -145.958,-65.345 -145.958,-145.958c-0,-80.612 65.333,-145.958 145.958,-145.958c80.583,-0 145.958,65.346 145.958,145.958Z" style="fill:#e3e9ff;fill-rule:nonzero;"/><path d="M3472.18,3328.39l609.433,-0l0,-609.433l-609.433,-0l0,609.433Zm648.9,78.933l-688.362,0c-21.796,0 -39.467,-17.671 -39.467,-39.467l-0,-688.362c-0,-21.796 17.671,-39.467 39.467,-39.467l688.362,0c21.796,0 39.467,17.671 39.467,39.467l-0,688.362c-0,21.796 -17.671,39.467 -39.467,39.467Z" style="fill:#ffe8b1;fill-rule:nonzero;"/><path d="M3707.28,3359.35l-368.833,-427.513l130.829,-112.874l239.229,277.287l487.292,-554.283l129.75,114.087l-618.267,703.296Z" style="fill:#e76f51;fill-rule:nonzero;"/><rect x="4481.83" y="2691.85" width="1587.71" height="141.479" style="fill:#ffe8b1;fill-rule:nonzero;"/><rect x="6177.96" y="2691.85" width="855.25" height="141.479" style="fill:#ffe8b1;fill-rule:nonzero;"/><rect x="4481.83" y="2973.1" width="911.083" height="141.483" style="fill:#ffe8b1;fill-rule:nonzero;"/><rect x="4481.83" y="3254.36" width="1997.46" height="141.479" style="fill:#ffe8b1;fill-rule:nonzero;"/><rect x="5495.21" y="2973.1" width="1538" height="141.483" style="fill:#ffe8b1;fill-rule:nonzero;"/><path d="M3472.18,4898.08l609.433,0l0,-609.416l-609.433,-0l0,609.416Zm648.9,78.959l-688.362,-0c-21.796,-0 -39.467,-17.667 -39.467,-39.459l-0,-688.375c-0,-21.791 17.671,-39.458 39.467,-39.458l688.362,0c21.796,0 39.467,17.667 39.467,39.458l-0,688.375c-0,21.792 -17.671,39.459 -39.467,39.459Z" style="fill:#ffe8b1;fill-rule:nonzero;"/><path d="M3707.28,4929.04l-368.833,-427.5l130.829,-112.875l239.229,277.291l487.292,-554.283l129.75,114.075l-618.267,703.292Z" style="fill:#e76f51;fill-rule:nonzero;"/><rect x="4481.83" y="4241.71" width="2231.12" height="141.5" style="fill:#ffe8b1;fill-rule:nonzero;"/><rect x="4481.83" y="4522.96" width="1409.21" height="141.5" style="fill:#ffe8b1;fill-rule:nonzero;"/><rect x="4481.83" y="4804.21" width="554.708" height="141.5" style="fill:#ffe8b1;fill-rule:nonzero;"/><rect x="5126.71" y="4804.21" width="1895.08" height="141.5" style="fill:#ffe8b1;fill-rule:nonzero;"/><rect x="6005.58" y="4522.96" width="1016.21" height="141.5" style="fill:#ffe8b1;fill-rule:nonzero;"/><path d="M3472.18,6460.92l609.433,-0l0,-609.417l-609.433,-0l0,609.417Zm648.9,78.916l-688.362,0c-21.796,0 -39.467,-17.666 -39.467,-39.458l-0,-688.375c-0,-21.792 17.671,-39.458 39.467,-39.458l688.362,-0c21.796,-0 39.467,17.666 39.467,39.458l-0,688.375c-0,21.792 -17.671,39.458 -39.467,39.458Z" style="fill:#ffe8b1;fill-rule:nonzero;"/><path d="M3707.28,6491.88l-368.833,-427.5l130.829,-112.875l239.229,277.25l487.292,-554.25l129.75,114.083l-618.267,703.292Z" style="fill:#e76f51;fill-rule:nonzero;"/><rect x="4481.83" y="5798.46" width="684.583" height="141.5" style="fill:#ffe8b1;fill-rule:nonzero;"/><rect x="5242.17" y="5798.46" width="1773.04" height="141.5" style="fill:#ffe8b1;fill-rule:nonzero;"/><rect x="4481.83" y="6079.71" width="1851.08" height="141.5" style="fill:#ffe8b1;fill-rule:nonzero;"/><rect x="4481.83" y="6361" width="1176.96" height="141.458" style="fill:#ffe8b1;fill-rule:nonzero;"/><rect x="5737.62" y="6361" width="913.333" height="141.458" style="fill:#ffe8b1;fill-rule:nonzero;"/><rect x="6438.92" y="6079.71" width="582.875" height="141.5" style="fill:#ffe8b1;fill-rule:nonzero;"/><path d="M8839.58,3673.75c-10.208,-139.937 -125.25,-134.579 -125.25,-134.579c-81.916,-4.188 -418.708,154.296 -626.333,286.133c-4,2.538 -7.958,5.096 -11.875,7.609c-35.083,-168.592 -178.459,-432.763 -196.542,-574.425c-0.125,-0.913 -0.291,-1.755 -0.416,-2.654c-38.209,37.941 -82.75,72.183 -118.042,112.796c2.833,4.641 4.583,7.616 4.709,8.016c37.791,131.842 55.916,642.058 176.749,724.117c84.751,57.537 752,-248.863 752,-248.863c0,0 154.167,-53.258 145,-178.15Z" style="fill:#f4a261;fill-rule:nonzero;"/><path d="M10215.2,3267.3l-3609.04,810.354l-133.917,-598.25l3609.04,-810.354l133.916,598.25Z" style="fill:#e76f51;fill-rule:nonzero;"/><path d="M10534.3,3195.87l-319.125,71.442l-133.916,-598.246l319.125,-71.442c112.624,-25.212 224.374,45.654 249.583,158.287l42.625,190.367c25.208,112.629 -45.667,224.379 -158.292,249.592Z" style="fill:#e76f51;fill-rule:nonzero;"/><path d="M10231.3,3263.7l-285.375,63.891l-134.083,-598.883l285.417,-63.891l134.041,598.883Z" style="fill:#f3c8b9;fill-rule:nonzero;"/><path d="M10216.7,3281.51l-12.666,2.838c-9.792,2.192 -19.5,-3.967 -21.667,-13.75l-133,-594.079c-2.166,-9.78 3.959,-19.488 13.75,-21.675l12.666,-2.842c9.792,-2.187 19.501,3.967 21.709,13.75l132.959,594.079c2.208,9.78 -3.959,19.488 -13.751,21.679Z" style="fill:#f3ae9c;fill-rule:nonzero;"/><path d="M10079.9,3314.13l-12.708,2.842c-9.75,2.191 -19.459,-3.963 -21.667,-13.75l-133,-594.079c-2.167,-9.784 4,-19.484 13.75,-21.676l12.709,-2.837c9.791,-2.191 19.458,3.963 21.666,13.742l133,594.083c2.167,9.783 -3.958,19.488 -13.75,21.675Z" style="fill:#f3ae9c;fill-rule:nonzero;"/><path d="M9935.88,3344.81l-12.666,2.841c-9.792,2.188 -19.501,-3.967 -21.667,-13.746l-133.001,-594.083c-2.208,-9.783 3.959,-19.488 13.751,-21.679l12.666,-2.838c9.792,-2.192 19.5,3.963 21.709,13.75l132.958,594.075c2.208,9.784 -3.958,19.488 -13.75,21.68Z" style="fill:#f3ae9c;fill-rule:nonzero;"/><path d="M6620.25,3760.35c-37,-165.187 -103,-291.037 -147.417,-281.092c-0.208,0.047 -0.375,0.142 -0.583,0.192l-0,-0.05l-0.208,0.117c-4.375,1.146 -8.334,3.608 -11.917,7.237l-448.083,271.609l-319.334,193.574c-10.791,6.546 -7.166,23.051 5.375,24.447l369.25,41.17l524.542,58.488c4.791,1.771 9.417,2.325 13.875,1.541l0.417,0.05l-0.042,-0.099c0.208,-0.042 0.416,-0.034 0.625,-0.08c44.417,-9.945 50.458,-151.92 13.5,-317.104Z" style="fill:#f3c8b9;fill-rule:nonzero;"/><path d="M6056.67,3879.93c11.458,51.2 14.666,99.546 10.666,137.633l-369.25,-41.17c-12.541,-1.396 -16.166,-17.901 -5.375,-24.447l319.334,-193.574c18.041,31.983 34,74.162 44.625,121.558Z" style="fill:#e76f51;fill-rule:nonzero;"/><path d="M8406.46,3723.16c-104.167,-135.42 -93.75,-406.267 -15.625,-505.229c78.125,-98.962 81.874,-173.537 36.458,-270.841c-109.375,-234.384 312.5,-427.101 500.042,-406.267c187.5,20.833 552.083,104.171 562.5,380.221c10.416,276.054 26.041,291.679 151.041,359.391c125,67.708 171.875,281.263 125,380.221c-46.875,98.967 -213.541,234.383 -145.833,343.767c67.708,109.375 151.042,249.996 57.292,369.787c-93.75,119.792 -192.709,349 -265.625,380.25c-72.917,31.25 -296.875,5.209 -296.875,5.209l-708.375,-1036.51Z" style="fill:#264653;fill-rule:nonzero;"/><path d="M8916.58,3367.68l202.042,-30.262l-16.083,187.537c0,0 -102.333,184.379 -199.417,152.625c-97.084,-31.754 -49.75,-113.208 -49.75,-113.208l63.208,-196.692Z" style="fill:#ffab68;fill-rule:nonzero;"/><path d="M9204.5,3082.24c-7.542,223.858 -116.292,363.679 -292.083,357.733c-175.834,-5.946 -312.208,-192.242 -304.625,-416.104c7.537,-223.863 156.208,-400.517 332.042,-394.571c162.783,5.508 257.5,197.156 264.646,403.2c0.573,16.518 0.583,33.128 0.02,49.742Z" style="fill:#f4a261;fill-rule:nonzero;"/><path d="M8968.75,3023.4c-2.5,-0.438 -4.833,-1.692 -6.625,-3.734c-26.084,-29.624 -71.083,-23.587 -71.542,-23.525c-6.25,0.896 -12.124,-3.458 -13.041,-9.737c-0.917,-6.283 6.333,-18.825 18.333,-19.334c2.375,-0.099 50.292,-6.554 84.75,32.605c4.209,4.771 2.5,16.829 -2.25,21.033c-2.75,2.4 -6.291,3.279 -9.625,2.692Z" style="fill:#201d40;fill-rule:nonzero;"/><path d="M8623,3048.06c-1.208,-0.317 -2.375,-0.838 -3.459,-1.568c-5.254,-3.537 -6.666,-10.691 -3.125,-15.97c27.459,-41.038 72.788,-35.587 74.709,-35.334c6.287,0.829 10.708,6.617 9.917,12.922c-0.833,6.287 -6.588,10.72 -12.88,9.92c-1.495,-0.175 -33.291,-3.55 -52.62,25.304c-2.833,4.2 -7.922,5.958 -12.542,4.726Z" style="fill:#201d40;fill-rule:nonzero;"/><path d="M8775.38,3126.55c-12.375,19.308 -22.709,38.729 -35.75,51.204c-4.417,4.204 -4.629,11.242 -0.666,15.838c16.458,18.966 55.332,29.408 78.874,34.191c3.417,0.7 5.167,-3.967 2.125,-5.704c-25.749,-14.696 -38,-26.884 -43.541,-33.821c-2.709,-3.446 -3.584,-7.983 -2.417,-12.237c2.666,-9.759 7.875,-29.617 10.875,-45.78c1.042,-5.583 -6.416,-8.474 -9.5,-3.691Z" style="fill:#de623c;fill-rule:nonzero;"/><path d="M8939.21,3276.33c3.625,-7.233 -3.083,-15.287 -10.833,-12.958c-19.708,5.921 -52.417,15.017 -84.166,20.575c-31.751,5.554 -65.625,8.1 -86.168,9.217c-8.083,0.441 -11.625,10.287 -5.749,15.862c18.041,17.146 53.458,41.758 102.125,33.242c48.666,-8.512 73.625,-43.683 84.791,-65.938Z" style="fill:#fff;fill-rule:nonzero;"/><path d="M9323,3058.15c-205.584,14.012 -506.417,-185.046 -550.75,-284.975c13.083,-133.567 107.5,-218.946 235.833,-184.479c128.292,34.475 367.376,294.021 314.917,469.454Z" style="fill:#264653;fill-rule:nonzero;"/><path d="M8824.96,2820.26c0,-0 -107.629,137.537 -227.666,179.82c26.708,-149.179 45.079,-262.062 114.999,-305.904c69.917,-43.846 150.834,-59.3 150.834,-59.3l-38.167,185.384Z" style="fill:#264653;fill-rule:nonzero;"/><path d="M9134.33,3018.36c-34.291,39.996 -35.541,95.159 -2.791,123.204c32.749,28.047 87.041,18.355 121.333,-21.645c34.25,-40 35.5,-95.163 2.75,-123.204c-32.708,-28.046 -87.042,-18.35 -121.292,21.645Z" style="fill:#f4a261;fill-rule:nonzero;"/><path d="M9179.54,3121.69c-1.667,-0.445 -3.25,-1.283 -4.667,-2.508c-19.875,-17.617 -26.125,-40.7 -16.667,-61.737c9.667,-21.55 32.958,-35.255 55.417,-32.6c6.292,0.754 10.792,6.479 10.041,12.795c-0.749,6.317 -6.458,10.825 -12.791,10.08c-12.292,-1.454 -26.166,6.954 -31.667,19.145c-5.25,11.713 -1.333,24.171 10.958,35.079c4.751,4.222 5.209,11.496 1,16.255c-3,3.379 -7.541,4.579 -11.624,3.491Z" style="fill:#de623c;fill-rule:nonzero;"/><path d="M8710.75,3086.55c1.959,17.25 -10.416,32.816 -27.667,34.783c-17.249,1.958 -32.791,-10.429 -34.791,-27.675c-1.958,-17.25 10.458,-32.817 27.708,-34.783c17.245,-1.958 32.792,10.433 34.75,27.675Z" style="fill-rule:nonzero;"/><path d="M8946.5,3056.1c2.083,18.4 -11.125,35.016 -29.5,37.112c-18.417,2.092 -35.042,-11.129 -37.125,-29.529c-2.084,-18.4 11.125,-35.012 29.542,-37.108c18.374,-2.092 34.999,11.125 37.083,29.525Z" style="fill-rule:nonzero;"/><path d="M8727.42,7614.08c13.542,-134.916 -56.083,-1161.83 -56.083,-1161.83c-196.876,-902.792 -119.547,-1549.04 -119.547,-1549.04l338.421,23.792l133.375,510.167l-63.291,851.958c-0,0 23.749,65.583 36.291,118.042c67.959,284.375 0.292,624.25 -41.583,850.791c-19.375,104.959 -49.541,325.584 -50.333,375.75l26.541,85.084l-411.833,201.25c126.458,-129.875 204.162,-267.334 208.042,-305.959Z" style="fill:#f4a261;fill-rule:nonzero;"/><path d="M8807.5,7714.67c-27.542,-80.417 -88.333,-90.042 -88.333,-90.042c-120.292,167.75 -409.792,60.708 -402.751,289.5c442.042,2.083 625.709,7.125 625.709,7.125c0,-52.542 -7.333,-177.333 -16.958,-226.25l-23.084,4.125l-94.583,15.542Z" style="fill:#264653;fill-rule:nonzero;"/><path d="M8841.88,4968.88l476.708,-65.667c182.375,412.625 241.834,1131 291.333,1386.92c198.709,333.167 261.792,1343.58 261.792,1343.58l25.75,101.875l-254.916,158.709c-81.917,-63.167 45.417,-197.375 53.583,-235.334c12.333,-57.083 -385.833,-1178 -385.833,-1178l-42.542,-106.333c-486.333,-803.25 -566.13,-1410.5 -566.13,-1410.5l140.255,4.75Z" style="fill:#f4a261;fill-rule:nonzero;"/><path d="M9779.79,7755.25c-27.541,-80.417 -88.333,-90.042 -88.333,-90.042c-120.291,167.75 -409.791,60.709 -402.75,289.5c442.042,2.084 625.709,7.125 625.709,7.125c-0,-52.541 -7.334,-177.333 -16.959,-226.25l-23.083,4.125l-94.584,15.542Z" style="fill:#264653;fill-rule:nonzero;"/><path d="M9886.29,6119.75c-47.625,-159.292 -185,-1175.96 -605.292,-1486l-723.25,76.208c-167.167,270.542 -203.292,795.625 -224.708,1441.92c674.874,-260.667 632,296.375 1553.25,-32.125Z" style="fill:#264653;fill-rule:nonzero;"/><path d="M8548.92,4531.5c-0,-158.375 -137.292,-395.679 -71.459,-555.571c47.917,-128.617 142.083,-418.787 244.667,-438.379c41.625,-7.95 87.333,0.054 145,-15.888c0,0 -30.125,134.326 37.666,139.763c130.417,10.458 198.959,-156.766 198.959,-156.766c70.333,-6.721 315.583,66.474 315.459,92.966c-0.793,207.479 -92.042,542.979 -147.167,767.292c-10.208,114.208 -2.125,202.833 9.333,267.458c20.875,67.375 46.375,105.958 46.541,120.5c0,0 -483.458,164.25 -791.082,-5.083c-0,-0 12.083,-109.334 12.083,-216.292Z" style="fill:#ffe8b1;fill-rule:nonzero;"/><path d="M9572.62,4736.21c-55.875,121.292 -155.5,106.792 -184.083,98.834c-31.125,-8.709 -73.875,-7.959 -90.084,13.666c-16.625,22.25 -25.333,47.042 -47.583,39.334c-31,-10.75 -0.792,-90.834 62.667,-94.084c-0,0 -49.834,1.709 -66.25,26.959c-18,27.666 -31.333,48.208 -50.292,45.333c-10.166,-1.542 -19.334,-13 -15.959,-26.792c-11.832,10 -38.791,18.584 -41.166,-0.291c-7.458,-59.75 33.75,-136.917 119.75,-155.084c-102.542,-15.583 -109.875,75.625 -141.917,77.375c-19.25,1.042 -20.958,-22.75 -17,-38.125c12.75,-49.291 53.417,-86.708 102.958,-98.333c49.542,-11.667 125.626,2.292 154.167,44.458c-0,0 59.917,21.75 84.084,-14.916l130.708,81.666Z" style="fill:#f4a261;fill-rule:nonzero;"/><path d="M9409.08,3585.2c0,-0 344.459,201.787 511.292,685.467c-149.834,166.083 -276.042,42.166 -276.042,42.166l-333.75,-329.791c0,-0 -98.083,-120.504 -51.208,-267.708c40.875,-128.218 149.708,-130.134 149.708,-130.134Z" style="fill:#f37a50;fill-rule:nonzero;"/><path d="M9441.92,4654.54l208,-325.204c-0,-0 56.874,-135.296 270.458,-58.671c10.334,114.833 -6.125,222.166 -350.25,466.125c-74.584,-13.417 -128.208,-82.25 -128.208,-82.25Z" style="fill:#f4a261;fill-rule:nonzero;"/><path d="M9409.08,3585.2c0,-0 344.459,201.787 511.292,685.467c-149.834,166.083 -289.042,29.291 -289.042,29.291l-320.75,-316.916c0,-0 -98.083,-120.504 -51.208,-267.708c40.875,-128.218 149.708,-130.134 149.708,-130.134Z" style="fill:#f4a261;fill-rule:nonzero;"/><path d="M7784.38,3166.39c3.292,0.717 6.25,2.084 9.084,3.717c0.124,-0.563 0.166,-1.112 0.291,-1.679c7.167,-33.029 32.208,-55.621 55.917,-50.462c3.875,0.85 7.458,2.445 10.75,4.583c11.291,-18.313 28.833,-28.821 45.75,-25.142c6.708,1.467 12.583,5.054 17.416,10.125c10.083,-19.021 29.167,-30.271 48.083,-26.142c23.709,5.159 37.959,32.2 31.792,60.392c-6.083,28.192 -30.291,46.867 -53.958,41.708c-6,-1.304 -11.375,-4.024 -16,-7.795c-9.417,27.92 -31.875,45.987 -53.292,41.325c-3.916,-0.846 -7.5,-2.446 -10.791,-4.575c-11.292,18.308 -28.834,28.816 -45.75,25.133c-6.25,-1.358 -11.75,-4.542 -16.375,-9.046c-8.167,17.292 -25,27.717 -41.625,24.092c-20.042,-4.358 -32.042,-27.192 -26.875,-51.009c5.167,-23.808 25.583,-39.583 45.583,-35.225Z" style="fill:#f4a261;fill-rule:nonzero;"/></g></svg>